<svg width="16" height="16" viewBox="0 0 16 16" fill="none" xmlns="http://www.w3.org/2000/svg">
<path fill-rule="evenodd" clip-rule="evenodd" d="M2.25176 2.25176C2.33137 2.17196 2.42593 2.10864 2.53004 2.06544C2.63416 2.02224 2.74577 2 2.85849 2C2.97121 2 3.08282 2.02224 3.18693 2.06544C3.29104 2.10864 3.38561 2.17196 3.46521 2.25176L8.00022 6.78849L12.5352 2.25176C12.6149 2.17209 12.7095 2.10888 12.8136 2.06576C12.9177 2.02264 13.0293 2.00045 13.142 2.00045C13.2546 2.00045 13.3662 2.02264 13.4703 2.06576C13.5744 2.10888 13.669 2.17209 13.7487 2.25176C13.8284 2.33144 13.8916 2.42603 13.9347 2.53013C13.9778 2.63423 14 2.74581 14 2.85849C14 2.97117 13.9778 3.08274 13.9347 3.18685C13.8916 3.29095 13.8284 3.38554 13.7487 3.46521L9.21196 8.00022L13.7487 12.5352C13.8284 12.6149 13.8916 12.7095 13.9347 12.8136C13.9778 12.9177 14 13.0293 14 13.142C14 13.2546 13.9778 13.3662 13.9347 13.4703C13.8916 13.5744 13.8284 13.669 13.7487 13.7487C13.669 13.8284 13.5744 13.8916 13.4703 13.9347C13.3662 13.9778 13.2546 14 13.142 14C13.0293 14 12.9177 13.9778 12.8136 13.9347C12.7095 13.8916 12.6149 13.8284 12.5352 13.7487L8.00022 9.21196L3.46521 13.7487C3.38554 13.8284 3.29095 13.8916 3.18685 13.9347C3.08274 13.9778 2.97117 14 2.85849 14C2.74581 14 2.63423 13.9778 2.53013 13.9347C2.42603 13.8916 2.33144 13.8284 2.25176 13.7487C2.17209 13.669 2.10888 13.5744 2.06576 13.4703C2.02264 13.3662 2.00045 13.2546 2.00045 13.142C2.00045 13.0293 2.02264 12.9177 2.06576 12.8136C2.10888 12.7095 2.17209 12.6149 2.25176 12.5352L6.78849 8.00022L2.25176 3.46521C2.17196 3.38561 2.10864 3.29104 2.06544 3.18693C2.02224 3.08282 2 2.97121 2 2.85849C2 2.74577 2.02224 2.63416 2.06544 2.53004C2.10864 2.42593 2.17196 2.33137 2.25176 2.25176Z" fill="white"/>
</svg>
